<svg width="98" height="98" viewBox="0 0 98 98" fill="none" xmlns="http://www.w3.org/2000/svg">
<g filter="url(#filter0_d_345_764)">
<rect x="12" y="10" width="74" height="74" rx="5" fill="#5ABACA"/>
</g>
<path d="M47.6402 67.2454C47.6402 68.352 47.195 69.0084 45.4638 69.2106L43.4244 69.5349L43.3369 69.7143H56.9467L56.844 69.5655L55.0786 69.2869C52.7158 68.7985 52.4647 68.4398 52.4647 67.2569V55.2368C52.4652 55.0717 52.4983 54.9083 52.5622 54.756C52.6262 54.6038 52.7196 54.4659 52.8371 54.3502C52.9546 54.2345 53.0939 54.1433 53.2468 54.0819C53.3997 54.0206 53.5632 53.9903 53.7279 53.9928H55.1204C60.4472 54.1951 62.3496 54.985 62.5855 58.7818L62.6311 59.9266L62.81 59.9876V48.124L62.6616 48.1813L62.5665 49.8717C62.4447 52.9664 60.1542 53.1648 55.3601 53.4205H53.7088C53.5442 53.424 53.3806 53.3946 53.2274 53.3338C53.0743 53.2731 52.9349 53.1823 52.8172 53.0668C52.6995 52.9513 52.6061 52.8134 52.5423 52.6611C52.4785 52.5089 52.4456 52.3454 52.4456 52.1803V46.0749C50.8544 46.3785 49.2406 46.5483 47.6211 46.5824L47.6402 67.2454Z" fill="white"/>
<path d="M42.3207 38.3401L45.0374 38.5729C47.5599 38.8247 47.6399 39.8626 47.6399 40.2175V44.7966C49.4757 44.1395 51.1294 43.0539 52.4644 41.6294V39.9886C52.4643 39.6606 52.5935 39.3459 52.8236 39.113C53.0538 38.88 53.3663 38.7476 53.6933 38.7446H54.3249C54.4206 38.5774 54.4923 38.3976 54.538 38.2104H42.2446L42.3207 38.3401Z" fill="white"/>
<path d="M68.2277 38.8667C68.2142 38.6855 68.1331 38.516 68.0005 38.3922C67.8679 38.2684 67.6935 38.1994 67.5124 38.1989H61.9573C61.8774 38.4889 61.7747 38.7713 61.6758 39.046C66.4356 39.5039 67.5923 42.549 68.6957 47.3303C68.7147 47.399 68.7375 47.5478 68.7603 47.6814L68.8973 48.2728H69.0001L68.2277 38.8667Z" fill="white"/>
<path d="M46.1787 24H29.038L29.2093 24.3816L31.2638 24.5648C34.1745 24.8738 34.517 27.2359 34.517 27.6747V58.9268C34.517 60.518 33.8321 61.7429 31.8536 61.9795L29.137 62.3611L29 62.59H45.8972L45.6917 62.3611L43.3632 62.0444C40.8254 61.6628 39.8475 60.7431 39.8475 59.0947V46.0291C41.2249 46.0673 44.147 46.1817 45.6879 46.1817C46.3538 46.1817 47.012 46.1817 47.6626 46.1359C49.2845 46.0719 50.8982 45.8728 52.4871 45.5407C56.6306 44.6401 59.8647 42.6826 61.2382 39.0537C61.3397 38.7789 61.431 38.4965 61.5121 38.2065C61.8104 37.0944 61.9564 35.9467 61.9459 34.7951C61.9117 27.2321 55.881 24 46.1787 24ZM54.9679 38.1989C54.907 38.3783 54.8385 38.5576 54.7662 38.7331C54.2312 40.05 53.4571 41.2559 52.4833 42.2895C51.1722 43.7074 49.5063 44.747 47.6588 45.3003C46.9789 45.4925 46.2764 45.5926 45.57 45.5979C43.5724 45.5979 41.2553 45.5979 39.8627 45.5445V24.3587L44.9612 24.3778C51.9126 24.5991 55.5386 28.8309 55.5386 35.0623C55.5241 36.1324 55.3312 37.1926 54.9679 38.1989Z" fill="white"/>
<defs>
<filter id="filter0_d_345_764" x="0" y="0" width="98" height="98" filterUnits="userSpaceOnUse" color-interpolation-filters="sRGB">
<feFlood flood-opacity="0" result="BackgroundImageFix"/>
<feColorMatrix in="SourceAlpha" type="matrix" values="0 0 0 0 0 0 0 0 0 0 0 0 0 0 0 0 0 0 127 0" result="hardAlpha"/>
<feOffset dy="2"/>
<feGaussianBlur stdDeviation="6"/>
<feComposite in2="hardAlpha" operator="out"/>
<feColorMatrix type="matrix" values="0 0 0 0 0.352941 0 0 0 0 0.729412 0 0 0 0 0.792157 0 0 0 0.2 0"/>
<feBlend mode="normal" in2="BackgroundImageFix" result="effect1_dropShadow_345_764"/>
<feBlend mode="normal" in="SourceGraphic" in2="effect1_dropShadow_345_764" result="shape"/>
</filter>
</defs>
</svg>
